<svg xmlns="http://www.w3.org/2000/svg" xmlns:xlink="http://www.w3.org/1999/xlink" version="1.1" width="50px"
	height="50px" viewBox="0 0 256 256" xml:space="preserve">

	<defs>
	</defs>
	<g style="stroke: none; stroke-width: 0; stroke-dasharray: none; stroke-linecap: butt; stroke-linejoin: miter; stroke-miterlimit: 10; fill: none; fill-rule: nonzero; opacity: 1;"
		transform="translate(1.4065934065934016 1.4065934065934016) scale(2.81 2.81)">
		<path
			d="M 45 70.096 c -3.427 0 -6.204 -2.778 -6.204 -6.204 s 2.778 -6.204 6.204 -6.204 c 2.459 -10.518 1.411 -27.52 0 -45.194 c -3.445 0 -6.238 2.793 -6.238 6.238 c 0 2.447 1.413 4.56 3.464 5.581 L 31.339 46.22 L 12.594 34.921 c 0.557 -0.934 0.883 -2.021 0.883 -3.187 c 0 -3.445 -2.793 -6.238 -6.238 -6.238 S 1 28.289 1 31.734 s 2.793 6.238 6.238 6.238 c 0.43 0 0.85 -0.044 1.255 -0.126 l 7.072 39.661 h 0.902 H 45 C 47.392 75.908 46.554 73.133 45 70.096 z"
			style="stroke: none; stroke-width: 1; stroke-dasharray: none; stroke-linecap: butt; stroke-linejoin: miter; stroke-miterlimit: 10; fill: rgb(255,223,64); fill-rule: nonzero; opacity: 1;"
			transform=" matrix(1 0 0 1 0 0) " stroke-linecap="round" />
		<path
			d="M 45 70.096 c 3.427 0 6.204 -2.778 6.204 -6.204 S 48.427 57.687 45 57.687 V 12.493 c 3.445 0 6.238 2.793 6.238 6.238 c 0 2.447 -1.413 4.56 -3.464 5.581 L 58.661 46.22 l 18.745 -11.298 c -0.557 -0.934 -0.883 -2.021 -0.883 -3.187 c 0 -3.445 2.793 -6.238 6.238 -6.238 S 89 28.289 89 31.734 s -2.793 6.238 -6.238 6.238 c -0.43 0 -0.85 -0.044 -1.255 -0.126 l -7.072 39.661 h -0.902 H 45 V 70.096 z"
			style="stroke: none; stroke-width: 1; stroke-dasharray: none; stroke-linecap: butt; stroke-linejoin: miter; stroke-miterlimit: 10; fill: rgb(255,190,64); fill-rule: nonzero; opacity: 1;"
			transform=" matrix(1 0 0 1 0 0) " stroke-linecap="round" />
		<path
			d="M 45 56.688 c -3.972 0 -7.204 3.231 -7.204 7.204 s 3.232 7.204 7.204 7.204 C 48.884 66.293 48.884 61.49 45 56.688 z"
			style="stroke: none; stroke-width: 1; stroke-dasharray: none; stroke-linecap: butt; stroke-linejoin: miter; stroke-miterlimit: 10; fill: rgb(242,85,136); fill-rule: nonzero; opacity: 1;"
			transform=" matrix(1 0 0 1 0 0) " stroke-linecap="round" />
		<path d="M 45 56.688 c 3.972 0 7.204 3.231 7.204 7.204 S 48.972 71.096 45 71.096 V 56.688 z"
			style="stroke: none; stroke-width: 1; stroke-dasharray: none; stroke-linecap: butt; stroke-linejoin: miter; stroke-miterlimit: 10; fill: rgb(230,58,87); fill-rule: nonzero; opacity: 1;"
			transform=" matrix(1 0 0 1 0 0) " stroke-linecap="round" />
		<path
			d="M 74.434 78.507 H 15.566 c -0.484 0 -0.899 -0.348 -0.984 -0.824 L 7.676 38.959 C 3.537 39.208 0 35.872 0 31.734 c 0 -3.991 3.247 -7.238 7.238 -7.238 s 7.238 3.247 7.238 7.238 c 0 0.965 -0.196 1.92 -0.573 2.809 l 17.022 10.26 l 9.99 -20.101 c -1.967 -1.339 -3.154 -3.547 -3.154 -5.971 c 0 -3.991 3.247 -7.238 7.238 -7.238 s 7.238 3.247 7.238 7.238 c 0 2.374 -1.148 4.557 -3.054 5.903 l 10.313 19.909 l 16.599 -10.001 c -0.376 -0.889 -0.572 -1.844 -0.572 -2.808 c 0 -3.991 3.247 -7.238 7.238 -7.238 S 90 27.743 90 31.734 c 0 4.138 -3.536 7.477 -7.677 7.225 l -6.905 38.723 C 75.333 78.159 74.918 78.507 74.434 78.507 z M 16.403 76.507 h 57.192 l 6.926 -38.836 c 0.047 -0.265 0.199 -0.5 0.422 -0.651 s 0.496 -0.205 0.762 -0.153 c 0.348 0.071 0.703 0.106 1.057 0.106 c 2.889 0 5.238 -2.35 5.238 -5.238 s -2.35 -5.238 -5.238 -5.238 s -5.238 2.35 -5.238 5.238 c 0 0.935 0.256 1.86 0.741 2.675 c 0.281 0.473 0.128 1.084 -0.344 1.368 l -18.306 11.03 c -0.237 0.144 -0.521 0.182 -0.787 0.105 c -0.267 -0.075 -0.489 -0.257 -0.616 -0.503 L 46.98 24.728 c -0.254 -0.49 -0.063 -1.093 0.427 -1.348 c 1.746 -0.906 2.831 -2.688 2.831 -4.648 c 0 -2.888 -2.35 -5.238 -5.238 -5.238 c -2.888 0 -5.238 2.35 -5.238 5.238 c 0 1.997 1.115 3.792 2.91 4.687 c 0.494 0.246 0.695 0.846 0.45 1.34 L 32.234 46.665 c -0.125 0.25 -0.348 0.437 -0.616 0.515 c -0.269 0.077 -0.557 0.04 -0.796 -0.104 L 12.078 35.778 c -0.472 -0.284 -0.625 -0.896 -0.343 -1.369 c 0.485 -0.814 0.742 -1.739 0.742 -2.675 c 0 -2.888 -2.35 -5.238 -5.238 -5.238 S 2 28.846 2 31.734 s 2.35 5.238 5.238 5.238 c 0.354 0 0.709 -0.036 1.056 -0.106 c 0.264 -0.053 0.539 0.001 0.762 0.153 c 0.223 0.151 0.375 0.386 0.422 0.651 L 16.403 76.507 z"
			style="stroke: none; stroke-width: 1; stroke-dasharray: none; stroke-linecap: butt; stroke-linejoin: miter; stroke-miterlimit: 10; fill: rgb(0,0,0); fill-rule: nonzero; opacity: 1;"
			transform=" matrix(1 0 0 1 0 0) " stroke-linecap="round" />
		<path
			d="M 45 71.096 c -3.972 0 -7.204 -3.231 -7.204 -7.204 s 3.232 -7.204 7.204 -7.204 c 3.973 0 7.204 3.231 7.204 7.204 S 48.973 71.096 45 71.096 z M 45 58.688 c -2.87 0 -5.204 2.335 -5.204 5.204 S 42.13 69.096 45 69.096 c 2.869 0 5.204 -2.335 5.204 -5.204 S 47.869 58.688 45 58.688 z"
			style="stroke: none; stroke-width: 1; stroke-dasharray: none; stroke-linecap: butt; stroke-linejoin: miter; stroke-miterlimit: 10; fill: rgb(0,0,0); fill-rule: nonzero; opacity: 1;"
			transform=" matrix(1 0 0 1 0 0) " stroke-linecap="round" />
	</g>
</svg>